<?xml version="1.0" standalone="no"?>
<!DOCTYPE svg PUBLIC "-//W3C//DTD SVG 20010904//EN"
 "http://www.w3.org/TR/2001/REC-SVG-20010904/DTD/svg10.dtd">
<svg version="1.0" xmlns="http://www.w3.org/2000/svg"
 width="640.000000pt" height="640.000000pt" viewBox="0 0 640.000000 640.000000"
 preserveAspectRatio="xMidYMid meet">
<metadata>
Created by potrace 1.14, written by Peter Selinger 2001-2017
</metadata>
<g transform="translate(0.000000,640.000000) scale(0.100000,-0.100000)"
fill="#000000" stroke="none">
<path d="M3218 5883 c-21 -7 -50 -19 -65 -27 -16 -7 -75 -26 -133 -41 -58 -15
-132 -40 -165 -55 -33 -15 -79 -35 -103 -45 -24 -10 -55 -32 -69 -49 -23 -27
-25 -36 -20 -86 8 -75 -12 -149 -56 -202 -51 -64 -67 -101 -67 -160 0 -45 6
-61 35 -103 20 -28 46 -58 58 -68 l22 -17 -24 -20 c-13 -11 -33 -22 -45 -24
-11 -3 -52 -12 -91 -20 -38 -9 -86 -16 -106 -16 -20 0 -54 -6 -75 -14 -54 -18
-200 -30 -209 -17 -12 20 -34 11 -70 -26 -48 -50 -67 -96 -63 -158 3 -49 2
-50 -32 -61 -19 -6 -35 -15 -36 -20 -1 -5 -5 -21 -8 -37 -6 -23 -10 -26 -32
-21 -19 5 -32 0 -52 -18 -35 -32 -82 -61 -89 -55 -6 7 47 87 58 87 13 0 11 28
-3 36 -7 5 -25 7 -41 6 -20 -2 -37 7 -60 30 -39 38 -68 40 -136 8 l-50 -23
-40 26 c-27 18 -41 35 -43 54 -3 24 -7 27 -47 29 -33 2 -55 -4 -84 -23 -37
-23 -41 -24 -53 -9 -7 10 -23 18 -36 20 -13 1 -29 6 -36 10 -6 4 -22 0 -35 -9
-22 -14 -26 -14 -51 6 -29 23 -28 47 2 82 14 16 14 19 2 28 -8 5 -25 7 -38 4
-31 -8 -49 37 -27 68 8 12 15 40 15 62 0 38 -2 41 -40 53 -48 15 -186 16 -195
2 -9 -14 13 -40 42 -51 27 -10 30 -31 7 -53 -21 -21 -31 -20 -39 4 -4 12 -15
20 -29 20 -31 0 -48 22 -44 57 2 23 0 27 -17 25 -11 -2 -36 -4 -55 -6 -19 -1
-43 -6 -53 -11 -30 -13 -128 2 -158 24 -16 12 -33 21 -39 21 -6 0 -28 9 -48
19 -29 15 -63 20 -145 22 -103 3 -108 2 -135 -23 -15 -14 -37 -29 -49 -33
l-23 -6 0 -780 0 -779 80 0 80 0 0 -33 0 -34 237 -6 c130 -4 239 -5 241 -2 3
3 -31 5 -76 5 -74 0 -82 2 -82 19 0 17 12 19 160 26 121 6 160 10 160 20 0 8
16 19 35 25 29 9 41 9 66 -4 18 -9 40 -16 49 -16 10 0 23 -7 31 -16 29 -35 69
-46 158 -43 47 2 90 8 94 13 5 6 7 -1 4 -16 -2 -16 1 -32 7 -37 8 -7 10 2 8
32 -5 50 -18 69 -33 47 -8 -12 -10 -9 -6 12 2 15 1 25 -3 23 -28 -17 -46 168
-26 268 11 57 31 48 20 -10 -10 -59 -11 -159 -1 -194 3 -14 22 -43 42 -65 22
-24 35 -48 35 -65 0 -18 9 -35 26 -48 14 -11 23 -25 20 -30 -4 -5 -13 -52 -21
-103 -24 -149 -46 -250 -63 -291 -16 -39 -36 -62 -26 -30 5 15 4 15 -4 3 -6
-8 -9 -28 -6 -45 2 -16 2 -24 -2 -17 -10 20 -52 14 -59 -8 -4 -14 -13 -19 -23
-16 -9 3 -51 8 -92 12 -41 4 -79 9 -83 11 -18 11 18 33 54 33 38 0 39 1 39 35
0 34 -1 35 -40 35 -71 0 -43 18 40 25 44 4 80 11 80 15 0 4 19 10 43 11 42 4
43 4 39 -25 -4 -26 -3 -28 11 -15 8 8 13 17 11 21 -2 4 0 9 6 13 5 3 7 20 4
38 -4 22 -3 28 4 19 9 -14 17 15 28 111 5 37 -10 53 -19 20 -3 -11 -5 -7 -6
10 -1 32 -21 37 -21 5 0 -19 -2 -20 -10 -8 -5 8 -10 25 -10 38 0 25 -11 27
-43 10 -19 -10 -19 -12 -5 -17 24 -8 7 -34 -23 -36 -15 -1 -25 -10 -29 -26 -9
-31 -1 -99 11 -99 5 0 9 5 9 11 0 5 5 7 10 4 6 -4 5 -12 -4 -21 -11 -11 -48
-14 -170 -14 l-156 0 0 -30 c0 -29 1 -30 49 -30 40 0 54 -5 80 -29 54 -50 45
-56 -87 -56 -109 1 -118 -1 -135 -22 -13 -16 -28 -22 -57 -21 -36 0 -40 3 -40
25 0 24 -3 25 -37 20 -21 -4 -50 -16 -65 -27 -28 -21 -108 -28 -108 -10 0 6
-18 10 -40 10 -22 0 -40 -3 -40 -7 0 -5 -10 -9 -22 -10 -13 0 -32 -3 -42 -5
-25 -4 -37 42 -26 99 4 21 8 32 9 25 1 -9 12 -12 34 -10 17 2 31 6 30 11 -2 4
-3 25 -3 47 0 36 -3 40 -24 40 -22 0 -25 5 -29 43 l-4 42 -1 -42 c-3 -56 -20
-56 -25 0 l-4 42 -1 -42 c-1 -24 -7 -43 -13 -43 -8 0 -10 -20 -7 -61 4 -54 2
-62 -14 -67 -10 -2 -18 -8 -18 -12 0 -7 -44 -19 -97 -26 -12 -1 -27 4 -34 12
-6 8 -15 14 -20 14 -5 0 -9 -451 -9 -1043 0 -821 3 -1046 12 -1056 11 -11 11
-13 0 -7 -9 6 -12 -84 -12 -433 l0 -441 1325 0 c1250 0 1325 1 1334 17 10 17
10 17 11 1 0 -17 33 -18 544 -18 426 0 545 3 549 13 4 9 6 9 6 0 1 -10 35 -13
135 -13 l134 0 -10 38 c-20 76 -17 95 5 29 l22 -67 232 0 c170 1 233 4 237 13
3 9 5 9 5 0 2 -23 39 -14 44 10 l4 22 2 -22 c1 -23 4 -23 124 -23 l124 0 17
107 c17 103 35 164 35 118 0 -11 -3 -38 -8 -60 -5 -22 -12 -68 -15 -102 l-7
-63 775 0 776 0 0 2205 c0 2005 -1 2204 -16 2198 -8 -3 -20 -16 -25 -29 -14
-39 -66 -28 -74 16 -8 41 -23 46 -53 17 -34 -32 -36 -33 -73 -6 -25 18 -29 25
-24 53 5 23 2 36 -9 45 -9 8 -16 19 -16 27 0 17 -29 46 -40 39 -4 -3 -11 2
-14 11 -3 8 -10 12 -16 9 -6 -4 -10 7 -9 27 0 18 3 27 6 21 7 -20 23 -15 23 6
0 32 -92 45 -151 21 -45 -19 -125 31 -144 90 -4 13 -15 20 -32 20 -33 0 -87
33 -113 70 -18 25 -24 27 -60 23 -32 -5 -46 -1 -63 14 -12 11 -39 23 -59 27
l-37 7 -3 -43 c-2 -35 -7 -44 -25 -46 -28 -4 -46 29 -38 69 5 24 2 35 -14 50
-27 25 -61 25 -61 0 0 -27 -26 -51 -55 -51 -13 0 -25 -4 -27 -9 -1 -5 -20 -18
-42 -29 -29 -16 -44 -18 -63 -11 -40 15 -58 11 -112 -26 -28 -19 -55 -35 -60
-35 -6 0 -16 -10 -22 -22 -6 -12 -25 -34 -42 -49 -23 -21 -35 -26 -52 -19 -35
13 -127 -38 -140 -78 -24 -71 -103 -84 -128 -22 -3 10 -6 7 -6 -8 -1 -13 -5
-20 -11 -17 -5 3 -10 1 -10 -5 0 -6 -4 -8 -10 -5 -5 3 -10 -3 -10 -14 0 -12
-4 -21 -9 -21 -10 0 -21 73 -21 139 0 82 -95 204 -134 172 -8 -7 -46 -2 -116
15 -161 38 -250 56 -310 63 -36 5 -72 18 -104 39 -28 18 -55 32 -62 32 -9 0
-11 20 -7 78 5 75 6 78 48 118 75 70 70 160 -12 243 -40 42 -44 49 -38 81 17
99 17 107 -4 148 -18 35 -29 44 -69 55 -26 8 -65 26 -86 41 -21 14 -56 31 -76
36 -21 6 -44 17 -51 26 -7 9 -47 33 -88 53 -72 35 -78 37 -113 24z m1590
-1352 c3 -9 0 -11 -8 -6 -10 6 -12 4 -7 -8 4 -11 1 -17 -8 -17 -9 0 -15 10
-15 26 0 18 5 25 17 22 9 -2 18 -9 21 -17z m-1711 -348 c9 -4 7 -12 -7 -30
-11 -14 -20 -32 -20 -39 0 -22 -16 -16 -28 11 -6 14 -16 25 -22 25 -5 0 -10
16 -10 35 l0 35 38 -16 c20 -9 43 -18 49 -21z m63 17 c0 -5 -4 -10 -10 -10 -5
0 -10 5 -10 10 0 6 5 10 10 10 6 0 10 -4 10 -10z m51 -103 c-6 -6 -11 -21 -11
-32 0 -12 -9 -30 -20 -40 -23 -21 -26 -9 -8 32 21 48 42 77 46 63 2 -6 -1 -17
-7 -23z m-71 -27 c0 -5 -2 -10 -4 -10 -3 0 -8 5 -11 10 -3 6 -1 10 4 10 6 0
11 -4 11 -10z m-49 -37 c13 -16 12 -17 -3 -4 -17 13 -22 21 -14 21 2 0 10 -8
17 -17z m-1832 -55 c-7 -13 -21 -48 -31 -78 l-18 -55 6 50 c3 28 10 52 15 53
5 2 9 9 9 16 0 11 19 36 27 36 2 0 -2 -10 -8 -22z m1816 -97 c3 -5 1 -12 -5
-16 -5 -3 -10 1 -10 9 0 18 6 21 15 7z m-955 -63 c0 -22 -17 -41 -29 -34 -15
10 -14 33 2 39 21 9 27 8 27 -5z m1084 -43 c-4 -8 -8 -15 -10 -15 -2 0 -4 7
-4 15 0 8 4 15 10 15 5 0 7 -7 4 -15z m1016 -126 c0 -6 -4 -7 -10 -4 -5 3 -10
11 -10 16 0 6 5 7 10 4 6 -3 10 -11 10 -16z m-1646 -150 c83 -39 153 -73 155
-75 2 -1 -15 -24 -37 -51 -22 -26 -70 -93 -108 -148 -37 -55 -92 -129 -122
-165 -30 -35 -49 -66 -43 -68 6 -2 19 4 28 14 12 12 18 13 21 4 2 -6 -11 -27
-29 -46 -25 -26 -36 -31 -46 -23 -17 14 -17 39 0 39 11 0 -12 14 -78 48 -16 8
-38 22 -47 31 -9 9 -38 32 -64 51 -26 19 -60 47 -77 61 l-30 26 43 83 c34 68
40 88 31 102 -9 14 -7 20 10 28 19 11 20 10 9 -9 -7 -14 -7 -21 0 -21 6 0 16
12 22 28 23 53 157 161 202 162 4 0 76 -32 160 -71z m200 -118 c62 -38 216
-92 302 -105 91 -15 182 -38 206 -52 7 -4 34 -25 59 -46 l45 -38 60 29 c93 46
97 46 138 6 36 -35 47 -65 24 -65 -7 0 -34 -10 -61 -22 -42 -20 -47 -26 -41
-48 3 -14 8 -45 10 -70 5 -44 4 -44 -10 -20 -9 14 -16 34 -16 45 -1 23 -26 61
-31 46 -2 -5 -25 -11 -50 -12 -58 -3 -89 16 -116 71 -15 29 -22 36 -27 25 -8
-23 15 -64 63 -108 40 -37 98 -133 87 -144 -3 -3 -10 6 -15 21 -11 28 -27 31
-79 17 -26 -8 -32 -7 -32 5 0 8 -11 19 -25 24 -14 5 -25 15 -25 21 0 7 -8 18
-17 25 -10 7 -18 18 -18 26 0 7 -8 14 -17 16 -28 5 -22 -40 8 -69 34 -32 67
-86 61 -102 -2 -7 -15 0 -35 21 -17 18 -39 32 -49 31 -26 -4 -83 33 -83 54 0
9 7 17 15 17 20 0 19 12 -6 44 -38 48 -89 26 -89 -38 0 -36 19 -83 28 -69 10
15 82 -80 82 -108 0 -10 -3 -19 -7 -19 -10 1 -49 62 -58 91 -6 17 -9 19 -16 8
-7 -11 -9 -10 -9 4 0 9 -4 17 -10 17 -5 0 -10 6 -10 13 0 23 -43 51 -77 50
-26 -1 -33 3 -33 18 0 11 -10 24 -22 28 -13 5 -35 21 -50 35 -15 14 -36 26
-46 26 -10 0 -25 12 -33 28 -19 37 -67 82 -89 82 -9 0 -25 9 -36 21 -19 21
-18 21 5 41 23 18 40 41 57 78 11 24 45 70 51 70 3 0 20 -9 37 -19z m1089 -37
c18 -9 71 -55 119 -102 77 -75 87 -89 83 -113 -4 -21 0 -31 14 -39 16 -8 20
-6 23 8 3 13 10 7 29 -23 49 -76 48 -79 -28 -121 -67 -37 -97 -58 -172 -121
-21 -18 -42 -33 -47 -33 -11 1 -106 129 -188 253 -32 49 -78 110 -102 135 -24
25 -41 49 -37 53 13 12 247 119 261 119 7 0 27 -7 45 -16z m1085 -209 c-3 -3
-9 2 -12 12 -6 14 -5 15 5 6 7 -7 10 -15 7 -18z m29 -116 c-6 -78 -21 -157
-32 -167 -7 -7 -5 23 11 181 9 87 28 74 21 -14z m-1158 -163 c7 -9 10 -24 6
-36 -7 -21 -7 -21 -27 -3 -26 23 -40 51 -33 63 7 12 35 -1 54 -24z m1666 -15
c0 -44 -2 -48 -22 -48 -13 0 -23 6 -23 14 0 7 -9 23 -20 35 -26 28 -25 36 3
41 60 12 62 10 62 -42z m-4300 -28 c-25 -83 -36 -107 -31 -63 5 40 36 133 43
126 3 -2 -3 -31 -12 -63z m3762 -55 c-3 -8 -6 -5 -6 6 -1 11 2 17 5 13 3 -3 4
-12 1 -19z m-3800 -90 c-3 -8 -6 -5 -6 6 -1 11 2 17 5 13 3 -3 4 -12 1 -19z
m-30 -175 c-3 -10 -5 -2 -5 17 0 19 2 27 5 18 2 -10 2 -26 0 -35z m3910 -290
c-3 -10 -5 -2 -5 17 0 19 2 27 5 18 2 -10 2 -26 0 -35z m-4611 -335 c-11 -15
-16 -18 -16 -7 0 16 21 42 28 34 2 -2 -3 -14 -12 -27z m111 -80 c-2 -13 -4 -5
-4 17 -1 22 1 32 4 23 2 -10 2 -28 0 -40z m536 -55 c4 -34 2 -41 -10 -36 -10
4 -13 16 -9 42 3 20 5 38 6 40 1 15 8 -10 13 -46z m-20 -68 c-3 -9 -8 -14 -10
-11 -3 3 -2 9 2 15 9 16 15 13 8 -4z m-303 -89 c0 -2 -7 -7 -16 -10 -8 -3 -12
-2 -9 4 6 10 25 14 25 6z m2815 -133 c4 -27 13 -62 20 -79 7 -17 16 -69 20
-115 4 -46 11 -89 16 -95 5 -6 6 -19 3 -29 -5 -13 -10 -8 -20 21 -7 21 -11 41
-8 45 2 5 0 27 -5 51 -5 24 -17 84 -26 133 -9 50 -19 98 -22 109 -3 11 -1 16
5 12 5 -3 13 -27 17 -53z m-3515 -34 c0 -6 -4 -7 -10 -4 -5 3 -10 11 -10 16 0
6 5 7 10 4 6 -3 10 -11 10 -16z m710 -70 c0 -6 -4 -7 -10 -4 -5 3 -10 11 -10
16 0 6 5 7 10 4 6 -3 10 -11 10 -16z m2870 -261 c0 -19 -2 -20 -10 -8 -13 19
-13 30 0 30 6 0 10 -10 10 -22z m30 -49 c0 -11 -4 -17 -10 -14 -5 3 -10 13
-10 21 0 8 5 14 10 14 6 0 10 -9 10 -21z m-2075 -96 c4 -27 11 -72 16 -102 11
-68 12 -138 1 -145 -5 -3 -9 25 -10 62 -2 59 -13 143 -27 210 -3 12 -1 22 4
22 5 0 13 -21 16 -47z m2105 6 c0 -6 -4 -7 -10 -4 -5 3 -10 11 -10 16 0 6 5 7
10 4 6 -3 10 -11 10 -16z m-3330 2 c0 -5 -7 -14 -15 -21 -16 -14 -18 -10 -9
14 6 17 24 22 24 7z m3314 -176 c4 -59 3 -70 -4 -40 -4 22 -11 76 -14 120 -4
59 -3 70 4 40 4 -22 11 -76 14 -120z m-2704 137 c0 -5 -16 -14 -36 -20 -25 -7
-34 -7 -32 0 2 6 14 12 26 13 12 1 25 5 29 8 9 9 13 9 13 -1z m2773 -44 c9
-31 2 -33 -11 -3 -6 14 -8 25 -3 25 5 0 11 -10 14 -22z m-2853 -19 c0 -6 -4
-7 -10 -4 -5 3 -10 11 -10 16 0 6 5 7 10 4 6 -3 10 -11 10 -16z m-324 -63 c-4
-18 -13 -40 -22 -47 -13 -11 -14 -9 -5 12 5 13 12 37 16 53 9 40 19 24 11 -18z
m4131 -8 c-2 -13 -4 -5 -4 17 -1 22 1 32 4 23 2 -10 2 -28 0 -40z m-3884 25
c-5 -14 -1 -15 33 -10 38 6 38 6 14 -8 -25 -14 -70 -20 -70 -9 0 8 20 44 25
44 2 0 2 -7 -2 -17z m3324 2 c9 -24 -1 -27 -15 -5 -8 13 -8 20 -2 20 6 0 13
-7 17 -15z m-3357 -44 c0 -5 -7 -12 -16 -15 -14 -5 -15 -4 -4 9 14 17 20 19
20 6z m3392 -31 c6 -37 -7 -27 -16 13 -4 17 -3 26 2 23 6 -3 12 -19 14 -36z
m983 -20 c3 -6 -1 -7 -9 -4 -18 7 -21 14 -7 14 6 0 13 -4 16 -10z m-4625 -10
c0 -5 -4 -10 -10 -10 -5 0 -10 5 -10 10 0 6 5 10 10 10 6 0 10 -4 10 -10z
m-90 -10 c0 -5 -2 -10 -4 -10 -3 0 -8 5 -11 10 -3 6 -1 10 4 10 6 0 11 -4 11
-10z m4270 -20 c0 -5 -2 -10 -4 -10 -3 0 -8 5 -11 10 -3 6 -1 10 4 10 6 0 11
-4 11 -10z m-4290 -4 c0 -11 -19 -15 -25 -6 -3 5 1 10 9 10 9 0 16 -2 16 -4z
m3195 -6 c3 -5 1 -10 -4 -10 -6 0 -11 5 -11 10 0 6 2 10 4 10 3 0 8 -4 11 -10z
m-25 -36 c0 -20 -7 -17 -20 6 -9 16 -8 18 5 14 8 -4 15 -12 15 -20z m-1950
-14 c0 -5 -4 -10 -10 -10 -5 0 -10 5 -10 10 0 6 5 10 10 10 6 0 10 -4 10 -10z
m2096 -294 c5 -43 4 -57 -4 -52 -7 4 -12 24 -12 44 0 20 -4 54 -9 75 -5 21
-12 82 -15 135 l-5 97 19 -120 c11 -66 23 -147 26 -179z m1487 275 c27 -11 57
-38 57 -52 0 -6 -14 0 -31 12 -18 12 -48 28 -68 35 -33 12 -34 13 -9 14 15 0
38 -4 51 -9z m-3363 -5 c0 -3 -4 -8 -10 -11 -5 -3 -10 -1 -10 4 0 6 5 11 10
11 6 0 10 -2 10 -4z m-747 -121 c-3 -9 -8 -14 -10 -11 -3 3 -2 9 2 15 9 16 15
13 8 -4z m2267 -90 c7 -9 8 -15 2 -15 -5 0 -12 7 -16 15 -3 8 -4 15 -2 15 2 0
9 -7 16 -15z m-113 -32 c-3 -10 -5 -4 -5 12 0 17 2 24 5 18 2 -7 2 -21 0 -30z
m2823 28 c0 -5 -7 -12 -16 -15 -14 -5 -15 -4 -4 9 14 17 20 19 20 6z m-4902
-26 c-3 -3 -9 2 -12 12 -6 14 -5 15 5 6 7 -7 10 -15 7 -18z m382 -10 c0 -5 -5
-3 -10 5 -5 8 -10 20 -10 25 0 6 5 3 10 -5 5 -8 10 -19 10 -25z m-713 -32 c-3
-10 -5 -2 -5 17 0 19 2 27 5 18 2 -10 2 -26 0 -35z m-396 -46 c-10 -9 -11 -8
-5 6 3 10 9 15 12 12 3 -3 0 -11 -7 -18z m5519 19 c0 -3 -4 -8 -10 -11 -5 -3
-10 -1 -10 4 0 6 5 11 10 11 6 0 10 -2 10 -4z m-3063 -38 c-3 -7 -5 -2 -5 12
0 14 2 19 5 13 2 -7 2 -19 0 -25z m483 -41 c0 -17 -6 -12 -25 22 -31 54 -31
64 0 28 14 -15 25 -38 25 -50z m917 41 c-3 -8 -6 -5 -6 6 -1 11 2 17 5 13 3
-3 4 -12 1 -19z m1950 0 c-3 -8 -6 -5 -6 6 -1 11 2 17 5 13 3 -3 4 -12 1 -19z
m-2660 -30 c-3 -8 -6 -5 -6 6 -1 11 2 17 5 13 3 -3 4 -12 1 -19z m-1387 -26
c0 -15 -2 -15 -10 -2 -13 20 -13 33 0 25 6 -3 10 -14 10 -23z m1527 -4 c-3 -7
-5 -2 -5 12 0 14 2 19 5 13 2 -7 2 -19 0 -25z m506 -43 c15 -19 24 -35 20 -35
-4 0 -21 16 -36 35 -15 19 -24 35 -20 35 4 0 21 -16 36 -35z m-2903 9 c0 -8
-5 -12 -10 -9 -6 4 -8 11 -5 16 9 14 15 11 15 -7z m1817 -61 c-2 -16 -4 -5 -4
22 0 28 2 40 4 28 2 -13 2 -35 0 -50z m602 -18 c0 -19 -2 -25 -8 -17 -4 7 -8
34 -8 60 -1 41 0 43 7 17 4 -16 8 -43 9 -60z m1246 55 c-4 -12 -9 -19 -12 -17
-3 3 -2 15 2 27 4 12 9 19 12 17 3 -3 2 -15 -2 -27z m-2713 -52 c-5 -5 -8 6
-6 29 4 51 6 54 11 14 3 -18 0 -38 -5 -43z m-1028 17 c-4 -8 -8 -15 -10 -15
-2 0 -4 7 -4 15 0 8 4 15 10 15 5 0 7 -7 4 -15z m3138 -7 c-7 -7 -12 -8 -12
-2 0 14 12 26 19 19 2 -3 -1 -11 -7 -17z m-4252 -8 c0 -5 -4 -10 -10 -10 -5 0
-10 5 -10 10 0 6 5 10 10 10 6 0 10 -4 10 -10z m690 -20 c-6 -12 -14 -19 -17
-17 -2 3 1 15 7 27 6 12 14 19 17 17 2 -3 -1 -15 -7 -27z m2257 -17 c-3 -10
-5 -5 -5 12 0 17 2 24 5 18 2 -7 2 -21 0 -30z"/>
<path d="M3141 3104 c-14 -32 0 -54 35 -54 18 0 22 5 20 24 -3 25 -22 56 -36
56 -4 0 -12 -12 -19 -26z"/>
<path d="M2771 3104 c0 -11 3 -14 6 -6 3 7 2 16 -1 19 -3 4 -6 -2 -5 -13z"/>
<path d="M2960 3026 c0 -2 7 -9 15 -16 9 -7 15 -8 15 -2 0 5 -7 12 -15 16 -8
3 -15 4 -15 2z"/>
<path d="M4015 3091 c-3 -5 -1 -12 5 -16 12 -7 30 2 30 16 0 12 -27 12 -35 0z"/>
<path d="M3993 3030 c-3 -12 -18 -27 -34 -36 -32 -16 -38 -44 -14 -64 12 -10
22 -8 52 7 36 19 38 23 38 67 0 38 -3 46 -18 46 -11 0 -21 -9 -24 -20z m-19
-65 c3 -8 1 -15 -4 -15 -6 0 -10 7 -10 15 0 8 2 15 4 15 2 0 6 -7 10 -15z"/>
<path d="M1220 4921 c0 -5 9 -7 20 -4 11 3 20 7 20 9 0 2 -9 4 -20 4 -11 0
-20 -4 -20 -9z"/>
<path d="M7 3273 c15 -6 17 -59 3 -68 -5 -3 -10 -42 -10 -86 l0 -79 41 0 c37
0 41 -2 36 -21 -5 -20 -5 -20 15 -2 17 15 18 18 4 21 -23 5 -24 162 -1 162 17
0 19 18 5 54 -8 23 -15 26 -57 25 -27 0 -42 -3 -36 -6z"/>
<path d="M422 3259 c-23 -36 -6 -59 44 -59 24 0 44 3 44 6 0 12 -53 74 -64 74
-6 0 -17 -9 -24 -21z"/>
<path d="M640 3240 c0 -17 -7 -20 -44 -20 -25 0 -48 -4 -51 -10 -4 -6 13 -10
44 -10 28 0 51 -4 51 -10 0 -5 18 -10 40 -10 22 0 40 5 40 10 0 6 18 10 40 10
38 0 40 -2 40 -31 l0 -30 126 2 c96 1 128 -2 135 -12 13 -22 22 -2 15 35 -6
33 -36 72 -36 47 0 -7 -38 -11 -120 -11 l-120 0 0 30 0 30 -80 0 c-73 0 -80
-2 -80 -20z"/>
<path d="M163 3080 c0 -25 2 -35 4 -22 2 12 2 32 0 45 -2 12 -4 2 -4 -23z"/>
<path d="M480 3050 c0 -5 13 -10 28 -10 15 0 33 -5 40 -12 9 -9 12 -7 12 10 0
19 -5 22 -40 22 -22 0 -40 -4 -40 -10z"/>
<path d="M320 3010 c0 -28 2 -30 40 -30 38 0 40 2 40 30 0 28 -2 30 -40 30
-38 0 -40 -2 -40 -30z"/>
</g>
</svg>
